<svg xmlns="http://www.w3.org/2000/svg" width="128" height="128" viewBox="0 0 128 128">
<g>
<path d="M 63.80 109.80 C63.14,110.46 61.88,111.00 61.00,111.00 C57.25,111.00 57.00,109.29 57.00,83.16 L 57.00 57.72 L 54.40 61.61 C47.98,71.20 40.06,77.00 33.36,77.00 C29.73,77.00 28.25,76.28 23.30,72.13 C15.62,65.69 14.21,63.96 8.69,54.27 C3.62,45.38 3.23,43.89 5.46,42.04 C7.39,40.43 9.17,41.65 8.80,44.31 C8.56,45.99 9.03,46.45 11.00,46.47 C13.07,46.49 13.49,46.98 13.44,49.25 C13.41,50.76 13.89,52.00 14.50,52.00 C16.71,52.00 19.43,54.83 19.53,57.24 C19.59,58.59 20.67,60.78 21.92,62.10 C23.18,63.42 24.90,65.54 25.75,66.80 C27.68,69.68 33.00,72.63 33.00,70.83 C33.00,69.90 33.28,69.88 34.15,70.75 C35.01,71.61 35.97,71.55 38.02,70.49 C39.52,69.71 41.10,69.40 41.53,69.79 C41.97,70.18 42.02,69.97 41.65,69.33 C40.87,67.97 43.51,65.00 45.49,65.00 C46.91,65.00 48.38,61.17 49.49,54.61 C49.96,51.83 51.26,49.73 54.07,47.20 C56.23,45.26 58.00,43.13 58.00,42.46 C58.00,41.79 58.63,40.72 59.41,40.07 C61.92,37.99 62.48,40.90 62.65,56.86 C62.74,65.59 63.25,72.65 63.82,73.22 C65.08,74.48 67.00,73.37 67.00,71.38 C67.00,70.56 67.38,70.11 67.84,70.40 C69.02,71.13 73.15,68.06 72.47,66.95 C72.16,66.45 72.47,65.02 73.16,63.77 C73.84,62.52 74.49,60.98 74.60,60.35 C74.99,58.04 79.42,53.00 81.06,53.00 C82.14,53.00 82.97,51.91 83.35,50.00 C83.83,47.62 84.47,47.00 86.47,47.00 C87.86,47.00 88.95,46.66 88.88,46.25 C88.52,43.99 89.28,42.78 91.75,41.65 C96.26,39.60 100.99,36.56 100.99,35.69 C101.00,35.25 101.40,35.13 101.89,35.43 C102.38,35.74 104.74,35.35 107.14,34.57 C111.08,33.30 117.73,31.57 123.75,30.26 C125.50,29.88 126.00,30.21 126.00,31.76 C126.00,34.56 124.41,35.59 117.20,37.45 C108.95,39.58 94.60,47.23 89.28,52.31 C84.68,56.72 78.52,66.69 70.32,83.00 C65.35,92.88 65.04,93.95 65.02,101.05 C65.01,105.56 64.52,109.08 63.80,109.80 ZM 63.95 128.00 L 55.74 128.00 L 52.34 119.45 C50.47,114.75 49.19,110.51 49.48,110.03 C49.77,109.56 49.63,109.02 49.17,108.84 C48.70,108.65 46.26,102.65 43.75,95.50 C41.23,88.35 38.86,81.71 38.48,80.75 C38.01,79.56 38.26,79.00 39.25,79.00 C40.06,79.00 42.42,77.85 44.50,76.44 C46.57,75.03 48.62,74.24 49.04,74.69 C49.47,75.13 51.21,79.47 52.91,84.33 C55.44,91.56 56.00,94.72 56.00,101.75 C56.00,108.34 56.39,110.77 57.65,112.17 C61.31,116.21 65.49,113.22 66.29,106.00 C67.05,99.09 73.48,81.86 80.07,69.05 C86.00,57.55 87.54,55.26 91.84,51.55 C94.03,49.66 94.00,49.85 91.15,57.55 C78.80,90.86 66.68,122.73 65.44,125.12 L 63.95 128.00 ZM 38.63 61.44 C34.72,65.58 33.27,65.87 32.13,62.75 C20.37,30.49 12.88,7.60 13.41,5.52 C14.73,0.26 21.82,-0.23 24.34,4.76 C25.10,6.27 27.79,13.35 30.31,20.50 C32.82,27.65 36.91,39.21 39.38,46.18 C43.46,57.70 43.72,58.99 42.25,60.18 C40.85,61.32 40.72,61.25 41.31,59.69 C41.68,58.69 40.47,59.48 38.63,61.44 ZM 99.72 0.00 L 119.09 0.00 C110.65,0.00 110.21,0.10 110.72,2.02 C111.18,3.79 102.83,28.30 101.11,30.22 C100.76,30.61 99.04,31.04 97.30,31.17 C95.56,31.31 94.36,31.77 94.63,32.21 C94.90,32.64 94.39,33.00 93.50,33.00 C92.61,33.00 92.13,33.41 92.44,33.91 C92.75,34.41 92.17,34.60 91.15,34.33 C90.13,34.06 88.56,34.59 87.65,35.49 C86.74,36.40 86.00,36.92 86.00,36.66 C86.00,36.39 89.09,28.03 92.86,18.08 L 99.72 0.00 Z" fill="rgb(31,33,52)"/>
<path d="M 38.63 61.44 C40.47,59.48 41.68,58.69 41.31,59.69 C40.72,61.25 40.85,61.32 42.25,60.18 C43.72,58.99 43.46,57.70 39.38,46.18 C36.91,39.21 32.82,27.65 30.31,20.50 C30.18,20.15 30.06,19.81 29.94,19.46 C31.74,24.45 34.02,30.91 36.97,39.29 C40.98,50.72 44.74,59.92 45.31,59.73 C45.87,59.54 48.85,54.46 51.92,48.44 C56.04,40.37 58.05,37.42 59.59,37.20 C63.73,36.61 64.47,39.27 65.00,56.80 L 65.50 73.29 L 70.50 64.48 C73.44,59.29 78.50,52.50 82.78,47.98 C88.90,41.52 91.67,39.49 100.28,35.16 C114.33,28.10 123.94,26.39 125.71,30.45 C125.39,30.06 124.79,30.03 123.75,30.26 C117.73,31.57 111.08,33.30 107.14,34.57 C104.74,35.35 102.38,35.74 101.89,35.43 C101.40,35.13 101.00,35.25 100.99,35.69 C100.99,36.56 96.26,39.60 91.75,41.65 C89.28,42.78 88.52,43.99 88.88,46.25 C88.95,46.66 87.86,47.00 86.47,47.00 C84.47,47.00 83.83,47.62 83.35,50.00 C82.97,51.91 82.14,53.00 81.06,53.00 C79.42,53.00 74.99,58.04 74.60,60.35 C74.49,60.98 73.84,62.52 73.16,63.77 C72.47,65.02 72.16,66.45 72.47,66.95 C73.15,68.06 69.02,71.13 67.84,70.40 C67.38,70.11 67.00,70.56 67.00,71.38 C67.00,73.37 65.08,74.48 63.82,73.22 C63.25,72.65 62.74,65.59 62.65,56.86 C62.48,40.90 61.92,37.99 59.41,40.07 C58.63,40.72 58.00,41.79 58.00,42.46 C58.00,43.13 56.23,45.26 54.07,47.20 C51.26,49.73 49.96,51.83 49.49,54.61 C48.38,61.17 46.91,65.00 45.49,65.00 C43.51,65.00 40.87,67.97 41.65,69.33 C42.02,69.97 41.97,70.18 41.53,69.79 C41.10,69.40 39.52,69.71 38.02,70.49 C35.97,71.55 35.01,71.61 34.15,70.75 C33.28,69.88 33.00,69.90 33.00,70.83 C33.00,72.63 27.68,69.68 25.75,66.80 C24.90,65.54 23.18,63.42 21.92,62.10 C20.67,60.78 19.59,58.59 19.53,57.24 C19.43,54.83 16.71,52.00 14.50,52.00 C13.89,52.00 13.41,50.76 13.44,49.25 C13.49,46.98 13.07,46.49 11.00,46.47 C9.03,46.45 8.56,45.99 8.80,44.31 C9.09,42.22 8.05,41.02 6.66,41.38 C9.17,40.11 11.24,42.19 16.10,50.57 C20.72,58.53 27.61,66.35 31.69,68.25 C33.43,69.06 34.78,68.73 38.39,66.62 C40.87,65.17 43.20,63.48 43.58,62.87 C43.96,62.26 42.15,63.00 39.57,64.51 C36.85,66.10 34.50,66.89 33.99,66.38 C33.89,66.28 33.60,65.63 33.14,64.51 C34.21,65.44 35.76,64.47 38.63,61.44 ZM 102.12 28.33 L 100.70 32.12 L 95.60 34.66 C92.80,36.06 88.78,38.85 86.67,40.85 L 82.85 44.50 L 84.40 40.50 C84.88,39.25 86.31,35.49 88.15,30.63 C86.83,34.21 86.00,36.52 86.00,36.66 C86.00,36.92 86.74,36.40 87.65,35.49 C88.56,34.59 90.13,34.06 91.15,34.33 C92.17,34.60 92.75,34.41 92.44,33.91 C92.13,33.41 92.61,33.00 93.50,33.00 C94.39,33.00 94.90,32.64 94.63,32.21 C94.36,31.77 95.56,31.31 97.30,31.17 C99.04,31.04 100.76,30.61 101.11,30.22 C101.34,29.96 101.69,29.30 102.12,28.33 ZM 19.05 25.52 C15.02,13.70 13.30,7.68 13.38,5.78 C13.38,7.53 15.43,14.62 19.05,25.52 ZM 110.72 2.05 C110.94,3.15 109.38,8.62 107.02,15.23 C109.11,9.01 110.90,3.01 110.72,2.05 ZM 22.67 2.65 C21.36,1.59 19.74,1.15 18.20,1.31 C19.25,1.17 20.36,1.30 21.38,1.77 C21.84,1.97 22.24,2.22 22.67,2.65 ZM 123.59 35.36 C125.41,34.44 125.97,33.44 126.00,31.89 C126.00,33.47 125.43,34.45 123.59,35.36 ZM 8.04 53.14 C8.25,53.50 8.46,53.88 8.69,54.27 C9.18,55.13 9.64,55.93 10.07,56.67 C9.62,55.90 9.14,55.07 8.63,54.17 C8.43,53.82 8.23,53.47 8.04,53.14 ZM 13.42 5.47 C13.42,5.46 13.42,5.45 13.42,5.45 C13.49,5.20 13.56,4.97 13.66,4.74 C13.56,4.97 13.48,5.21 13.42,5.47 Z" fill="rgb(43,25,66)"/>
<path d="M 102.12 28.33 C102.37,27.78 102.65,27.13 102.94,26.40 C101.86,29.51 101.23,31.57 101.35,31.69 C101.57,31.90 104.11,31.14 107.01,30.00 C110.10,28.78 115.02,27.83 118.89,27.71 L 125.50 27.50 L 125.80 30.59 L 125.80 30.59 C125.77,30.54 125.74,30.49 125.71,30.45 C123.94,26.39 114.33,28.10 100.28,35.16 C91.67,39.49 88.90,41.52 82.78,47.98 C78.50,52.50 73.44,59.29 70.50,64.48 L 65.50 73.29 L 65.00 56.80 C64.47,39.27 63.73,36.61 59.59,37.20 C58.05,37.42 56.04,40.37 51.92,48.44 C50.95,50.34 50.00,52.14 49.12,53.73 C50.09,51.52 51.09,48.89 51.99,46.07 C53.30,41.98 55.19,37.81 56.18,36.82 C58.95,34.05 62.45,34.56 65.48,38.16 C68.12,41.30 68.14,41.44 67.49,52.41 C67.13,58.51 66.63,64.40 66.38,65.50 C66.11,66.71 66.63,66.30 67.72,64.45 C71.04,58.77 76.27,51.52 79.59,48.00 C81.93,45.52 84.43,40.23 89.88,25.99 C89.24,27.69 88.66,29.25 88.15,30.63 C86.31,35.49 84.88,39.25 84.40,40.50 L 82.85 44.50 L 86.67 40.85 C88.78,38.85 92.80,36.06 95.60,34.66 L 100.70 32.12 ZM 33.30 67.00 C33.41,67.00 32.19,63.25 30.15,57.29 C30.80,59.08 31.46,60.90 32.13,62.75 C32.43,63.58 32.76,64.17 33.14,64.51 C33.60,65.63 33.89,66.28 33.99,66.38 C34.50,66.89 36.85,66.10 39.57,64.51 C42.15,63.00 43.96,62.26 43.58,62.87 C43.20,63.48 40.87,65.17 38.39,66.62 C34.78,68.73 33.43,69.06 31.69,68.25 C27.61,66.35 20.72,58.53 16.10,50.57 C11.24,42.19 9.17,40.11 6.66,41.38 C6.60,41.39 6.55,41.41 6.50,41.43 C8.04,40.13 9.90,39.00 10.89,39.00 C11.49,39.00 14.05,43.16 16.59,48.25 C21.36,57.82 25.54,63.14 30.20,65.59 C31.69,66.36 33.08,67.00 33.30,67.00 ZM 67.49 88.79 C65.75,92.87 65.34,95.36 65.02,100.53 C65.05,95.52 65.29,93.57 67.49,88.79 ZM 98.10 46.04 C94.42,48.23 91.22,50.48 89.27,52.38 C86.75,54.83 83.51,59.31 79.91,65.25 C83.59,59.07 86.69,54.80 89.28,52.31 C91.25,50.44 94.44,48.21 98.10,46.04 ZM 13.07 61.54 C14.49,63.67 15.82,65.29 17.53,66.99 C16.60,66.11 15.86,65.36 15.44,64.88 C14.85,64.20 14.02,63.01 13.07,61.54 ZM 110.67 3.06 C110.39,5.16 108.83,10.32 106.77,15.96 C106.85,15.72 106.93,15.47 107.02,15.23 C108.95,9.81 110.35,5.16 110.67,3.06 ZM 4.19 43.97 C4.10,44.62 4.25,45.42 4.67,46.52 C4.25,45.58 4.00,44.89 4.00,44.59 C4.00,44.42 4.07,44.21 4.19,43.97 ZM 96.08 9.58 L 99.70 0.00 L 99.72 0.00 ZM 13.38 5.71 C13.38,5.73 13.38,5.76 13.38,5.78 C13.32,7.25 14.33,11.17 16.65,18.32 C14.27,11.00 13.27,7.10 13.38,5.71 ZM 57.00 61.07 L 56.97 57.77 L 57.00 57.72 ZM 111.72 0.25 C110.83,0.44 110.58,0.77 110.58,1.34 C110.53,0.77 110.77,0.44 111.72,0.25 ZM 122.36 35.90 C121.09,36.39 119.41,36.88 117.20,37.45 C119.41,36.88 121.09,36.39 122.36,35.90 ZM 18.19 1.32 C19.16,1.18 20.18,1.28 21.15,1.67 C20.19,1.28 19.17,1.18 18.20,1.31 C18.20,1.31 18.19,1.32 18.19,1.32 ZM 29.94 19.45 C30.52,21.08 31.17,22.87 31.86,24.83 C31.17,22.88 30.53,21.09 29.94,19.46 ZM 13.42 5.47 C13.42,5.47 13.42,5.47 13.42,5.48 C13.42,5.47 13.42,5.47 13.42,5.46 C13.42,5.46 13.42,5.45 13.42,5.45 Z" fill="rgb(177,112,209)"/>
<path d="M 63.80 109.80 C64.52,109.08 65.01,105.56 65.02,101.05 C65.02,100.87 65.02,100.70 65.02,100.53 C65.34,95.36 65.75,92.87 67.49,88.79 C68.21,87.23 69.13,85.37 70.32,83.00 C73.89,75.90 77.07,70.01 79.91,65.25 C83.51,59.31 86.75,54.83 89.27,52.38 C91.22,50.48 94.42,48.23 98.10,46.04 L 98.10 46.04 C99.40,45.27 100.76,44.51 102.15,43.77 C98.24,46.03 96.43,49.29 94.12,55.66 C79.64,95.47 68.34,124.66 66.82,126.18 C65.06,127.94 66.06,128.00 96.50,128.00 L 63.95 128.00 L 65.44 125.12 C66.68,122.73 78.80,90.86 91.15,57.55 C94.00,49.85 94.03,49.66 91.84,51.55 C87.54,55.26 86.00,57.55 80.07,69.05 C73.48,81.86 67.05,99.09 66.29,106.00 C65.49,113.22 61.31,116.21 57.65,112.17 C56.39,110.77 56.00,108.34 56.00,101.75 C56.00,94.72 55.44,91.56 52.91,84.33 C51.21,79.47 49.47,75.13 49.04,74.69 C48.62,74.24 46.57,75.03 44.50,76.44 C42.42,77.85 40.06,79.00 39.25,79.00 C38.26,79.00 38.01,79.56 38.48,80.75 C38.00,79.54 36.67,78.99 34.14,78.98 C25.99,78.93 15.45,71.07 10.11,61.05 C8.32,57.70 6.75,53.95 6.61,52.73 C6.48,51.50 5.83,49.52 5.18,48.32 C4.53,47.11 4.00,45.46 4.00,44.63 C4.00,44.63 4.00,44.62 4.00,44.61 C4.01,44.92 4.26,45.60 4.67,46.52 C5.25,48.04 6.34,50.11 8.04,53.14 C8.23,53.47 8.43,53.82 8.63,54.17 C9.14,55.07 9.62,55.90 10.07,56.67 L 10.07 56.67 C11.20,58.61 12.15,60.18 13.07,61.54 C14.02,63.01 14.85,64.20 15.44,64.88 C15.86,65.36 16.60,66.11 17.53,66.99 C19.04,68.50 20.85,70.07 23.30,72.13 C28.25,76.28 29.73,77.00 33.36,77.00 C37.14,77.00 41.32,75.15 45.39,71.81 C48.45,69.31 51.45,65.96 54.18,61.94 C54.25,61.83 54.33,61.72 54.40,61.61 L 56.97 57.77 L 57.00 61.07 L 57.00 83.16 C57.00,109.29 57.25,111.00 61.00,111.00 C61.88,111.00 63.14,110.46 63.80,109.80 ZM 18.19 1.32 C17.86,1.35 17.53,1.42 17.22,1.51 C17.24,1.50 17.26,1.49 17.28,1.48 C20.32,0.16 19.91,0.08 10.25,0.04 L 0.00 0.00 L 99.70 0.00 L 61.60 0.08 C40.65,0.12 24.07,0.39 24.77,0.67 C26.76,1.47 28.13,4.80 37.52,31.50 C42.35,45.25 46.49,56.72 46.73,56.99 C46.87,57.16 47.05,57.14 47.28,56.93 C46.29,58.60 45.56,59.65 45.31,59.73 C44.74,59.92 40.98,50.72 36.97,39.29 C34.86,33.28 33.09,28.26 31.59,24.06 C31.61,24.11 31.62,24.16 31.64,24.21 C31.03,22.49 30.46,20.91 29.94,19.45 C27.53,12.67 25.07,6.20 24.34,4.76 C23.91,3.89 23.33,3.19 22.67,2.65 C22.24,2.22 21.84,1.97 21.38,1.77 C21.31,1.73 21.23,1.70 21.15,1.67 C20.18,1.28 19.16,1.18 18.19,1.32 ZM 104.96 30.76 C103.00,31.45 101.51,31.85 101.35,31.69 C101.23,31.57 101.86,29.51 102.94,26.40 C104.06,23.65 105.46,19.80 106.77,15.96 C108.83,10.32 110.39,5.16 110.67,3.06 C110.74,2.59 110.76,2.25 110.72,2.06 L 110.72 2.05 C110.72,2.04 110.72,2.03 110.72,2.02 C110.65,1.76 110.60,1.54 110.58,1.34 C110.58,1.29 110.58,1.25 110.59,1.20 L 111.24 3.75 C112.09,7.06 111.67,8.88 107.70,19.25 C105.22,25.71 103.55,31.00 103.98,31.00 C104.13,31.00 104.48,30.91 104.96,30.76 ZM 53.50 76.62 C54.50,79.58 55.48,82.00 55.66,82.00 C55.85,82.00 56.00,78.34 56.00,73.87 L 56.00 65.73 L 53.83 68.48 C51.68,71.23 51.68,71.27 53.50,76.62 ZM 123.59 35.36 C124.78,34.77 125.44,34.15 125.76,33.39 C125.14,36.54 122.08,38.03 113.92,39.91 C109.24,40.99 105.89,41.93 103.35,43.14 C108.28,40.60 113.39,38.44 117.20,37.45 C119.41,36.88 121.09,36.39 122.36,35.90 L 122.36 35.90 C122.82,35.72 123.23,35.54 123.59,35.36 ZM 19.05 25.52 C19.24,26.07 19.42,26.62 19.61,27.18 C17.22,20.32 15.61,15.45 14.67,11.93 C15.17,13.68 15.83,15.79 16.65,18.32 C17.33,20.43 18.13,22.82 19.05,25.52 ZM 117.91 27.76 C114.66,27.96 110.88,28.68 108.09,29.60 C108.20,29.56 108.32,29.51 108.43,29.47 C110.29,28.69 114.40,27.96 117.91,27.76 ZM 49.03 53.88 C49.83,52.09 50.79,49.55 51.91,46.32 C51.03,49.04 50.06,51.59 49.12,53.73 C49.09,53.78 49.06,53.83 49.03,53.88 ZM 55.94 37.10 C56.21,36.70 56.44,36.42 56.64,36.28 C57.47,35.67 58.32,35.28 59.18,35.13 C58.13,35.33 57.11,35.89 56.18,36.82 C56.11,36.89 56.03,36.99 55.94,37.10 ZM 15.11 2.65 C14.71,3.00 14.36,3.42 14.07,3.90 C14.31,3.39 14.67,2.99 15.11,2.65 ZM 60.18 35.05 C61.98,35.10 63.78,36.14 65.48,38.16 C63.79,36.15 61.95,35.10 60.18,35.05 ZM 6.97 41.04 C8.40,39.92 9.99,39.00 10.89,39.00 C10.00,39.00 8.40,39.92 6.97,41.04 Z" fill="rgb(180,211,214)"/>
<path d="M 0.00 64.00 L 0.00 0.00 L 10.25 0.04 C19.91,0.08 20.32,0.16 17.28,1.48 C11.62,3.94 11.85,5.34 23.24,37.49 C28.99,53.72 33.51,67.00 33.30,67.00 C33.08,67.00 31.69,66.36 30.20,65.59 C25.54,63.14 21.36,57.82 16.59,48.25 C14.05,43.16 11.49,39.00 10.89,39.00 C8.99,39.00 4.00,43.08 4.00,44.63 C4.00,45.46 4.53,47.11 5.18,48.32 C5.83,49.52 6.48,51.50 6.61,52.73 C6.75,53.95 8.32,57.70 10.11,61.05 C15.45,71.07 25.99,78.93 34.14,78.98 C36.67,78.99 38.00,79.54 38.48,80.75 C38.86,81.71 41.23,88.35 43.75,95.50 C46.26,102.65 48.70,108.65 49.17,108.84 C49.63,109.02 49.77,109.56 49.48,110.03 C49.19,110.51 50.47,114.75 52.34,119.45 L 55.74 128.00 L 27.87 128.00 L 0.00 128.00 L 0.00 64.00 ZM 66.82 126.18 C68.34,124.66 79.64,95.47 94.12,55.66 C98.01,44.96 100.46,43.01 113.92,39.91 C124.02,37.59 126.30,35.85 125.82,30.84 L 125.50 27.50 L 118.80 27.72 C115.12,27.83 110.45,28.62 108.43,29.47 C106.41,30.31 104.41,31.00 103.98,31.00 C103.55,31.00 105.22,25.71 107.70,19.25 C111.67,8.88 112.09,7.06 111.24,3.75 L 110.28 -0.00 L 119.14 -0.00 L 128.00 0.00 L 128.00 64.00 L 128.00 128.00 L 96.50 128.00 C66.06,128.00 65.06,127.94 66.82,126.18 ZM 53.50 76.62 C51.68,71.27 51.68,71.23 53.83,68.48 L 56.00 65.73 L 56.00 73.87 C56.00,78.34 55.85,82.00 55.66,82.00 C55.48,82.00 54.50,79.58 53.50,76.62 ZM 66.38 65.50 C66.63,64.40 67.13,58.51 67.49,52.41 C68.14,41.44 68.12,41.30 65.48,38.16 C62.66,34.81 59.55,34.14 56.64,36.28 C55.68,36.98 53.67,41.14 52.18,45.53 C49.36,53.82 47.45,57.83 46.73,56.99 C46.49,56.72 42.35,45.25 37.52,31.50 C28.13,4.80 26.76,1.47 24.77,0.67 C24.07,0.39 40.65,0.12 61.60,0.08 L 99.70 0.00 L 91.30 22.25 C84.85,39.33 82.13,45.31 79.59,48.00 C76.27,51.52 71.04,58.77 67.72,64.45 C66.63,66.30 66.11,66.71 66.38,65.50 Z" fill="rgb(253,254,254)"/>
</g>
</svg>